<?xml version="1.0" encoding="utf-8"?>
<!-- Generator: Adobe Illustrator 22.1.0, SVG Export Plug-In . SVG Version: 6.00 Build 0)  -->
<svg version="1.1" id="Layer_1" xmlns="http://www.w3.org/2000/svg" xmlns:xlink="http://www.w3.org/1999/xlink" x="0px" y="0px"
	 viewBox="0 0 22 22" style="enable-background:new 0 0 22 22;" xml:space="preserve">
<style type="text/css">
	.st0{fill:#E4AC2C;}
	.st1{clip-path:url(#XMLID_24_);fill:#D5D5D5;}
	.st2{fill:#797979;}
	.st3{fill:#FFFFFF;}
</style>
<g id="XMLID_1_">
	<path id="XMLID_12_" class="st0" d="M21,20V2c0-0.6-0.4-1-1-1H2C1.4,1,1,1.4,1,2v18c0,0.6,0.4,1,1,1h18C20.6,21,21,20.6,21,20z"/>
	<g id="XMLID_2_">
		<defs>
			<path id="XMLID_10_" d="M21,20V2c0-0.6-0.4-1-1-1H2C1.4,1,1,1.4,1,2v18c0,0.6,0.4,1,1,1h18C20.6,21,21,20.6,21,20z"/>
		</defs>
		<clipPath id="XMLID_24_">
			<use xlink:href="#XMLID_10_"  style="overflow:visible;"/>
		</clipPath>
		<rect id="XMLID_11_" x="11.1" y="10.8" class="st1" width="10.9" height="10.4"/>
	</g>
	<g id="XMLID_3_">
		<path id="XMLID_4_" class="st2" d="M15,15h-0.7v-0.7h4.1V15h-0.7v1.8c0,0.3,0.1,0.4,0.4,0.4c0.1,0,0.1,0,0.2,0v0.6
			c-0.1,0-0.2,0-0.4,0c-0.6,0-0.9-0.3-0.9-0.9V15h-1.2v2.8H15V15z"/>
	</g>
	<g id="XMLID_5_">
		<path id="XMLID_6_" class="st3" d="M5.1,7.2h2.4V8H4.1V7.4l1.3-1.8L4.1,4V3.3h3.3V4H5.2v0.1l1,1.5v0.1L5.1,7.2L5.1,7.2z"/>
	</g>
	<g id="XMLID_7_">
		<path id="XMLID_14_" class="st3" d="M14.8,6V5.2h3V6H14.8z"/>
	</g>
	<g id="XMLID_16_">
		<path id="XMLID_17_" class="st3" d="M4.2,16.5v-0.6h3.1v0.6H4.2z M5.3,15.1c0-0.3,0.2-0.5,0.5-0.5s0.5,0.2,0.5,0.5
			c0,0.3-0.2,0.5-0.5,0.5S5.3,15.3,5.3,15.1z M5.3,17.2c0-0.3,0.2-0.5,0.5-0.5s0.5,0.2,0.5,0.5c0,0.3-0.2,0.5-0.5,0.5
			S5.3,17.5,5.3,17.2z"/>
	</g>
	<g id="XMLID_21_">
		<polygon id="XMLID_22_" class="st3" points="11.6,10.3 11.6,1 10.6,1 10.6,10.3 1,10.3 1,11.3 10.6,11.3 10.6,21 11.6,21 
			11.6,11.3 21,11.3 21,10.3 		"/>
	</g>
</g>
</svg>
