<?xml version="1.0" encoding="utf-8"?>
<!-- Generator: Adobe Illustrator 22.1.0, SVG Export Plug-In . SVG Version: 6.00 Build 0)  -->
<svg version="1.1" id="Layer_1" xmlns="http://www.w3.org/2000/svg" xmlns:xlink="http://www.w3.org/1999/xlink" x="0px" y="0px"
	 viewBox="0 0 64 64" style="enable-background:new 0 0 64 64;" xml:space="preserve">
<style type="text/css">
	.st0{fill:#E4AC2C;}
	.st1{fill:#E4E4E4;}
	.st2{fill:#17B1E0;}
	.st3{fill:#FFFFFF;}
</style>
<path class="st0" d="M32,17c-8.3,0-15,6.7-15,15s6.7,15,15,15s15-6.7,15-15S40.3,17,32,17z M32,26c3.3,0,6,2.7,6,6s-2.7,6-6,6
	s-6-2.7-6-6S28.7,26,32,26z"/>
<path class="st1" d="M32,4C16.5,4,4,16.5,4,32s12.5,28,28,28s28-12.5,28-28S47.5,4,32,4z M32,20c6.6,0,12,5.4,12,12s-5.4,12-12,12
	s-12-5.4-12-12S25.4,20,32,20z"/>
<circle class="st2" cx="48" cy="46" r="16"/>
<path class="st3" d="M48,54l-6-8h4v-8h4v8h4L48,54z"/>
</svg>
