<?xml version="1.0" encoding="utf-8"?>
<!-- Generator: Adobe Illustrator 22.1.0, SVG Export Plug-In . SVG Version: 6.00 Build 0)  -->
<svg version="1.1" id="Layer_1" xmlns="http://www.w3.org/2000/svg" xmlns:xlink="http://www.w3.org/1999/xlink" x="0px" y="0px"
	 viewBox="0 0 92.7 92.7" style="enable-background:new 0 0 92.7 92.7;" xml:space="preserve">
<style type="text/css">
	.st0{fill:#D81C57;}
	.st1{fill:#2CB07A;}
	.st2{fill:#17B1E0;}
	.st3{fill:#E4AC2C;}
</style>
<g>
	<path id="XMLID_443_" class="st0" d="M63,43.2l26.9-26.9c3.7-3.7,3.7-9.8,0-13.5C88.1,0.9,85.6,0,83.2,0c-2.4,0-4.9,0.9-6.7,2.8
		L49.5,29.7V36v7.1h7.1H63z"/>
	<path id="XMLID_424_" class="st1" d="M29.7,49.5L2.8,76.4c-3.7,3.7-3.7,9.8,0,13.5c3.7,3.7,9.8,3.7,13.5,0L43.2,63v-6.4v-7.1H36
		H29.7z"/>
	<path id="XMLID_423_" class="st2" d="M89.9,89.9c3.7-3.7,3.7-9.8,0-13.5L63,49.5h-6.4h-7.1v7.1V63l26.9,26.9
		C80.1,93.6,86.2,93.6,89.9,89.9z"/>
	<path id="XMLID_375_" class="st3" d="M29.7,43.2H36h7.1V36v-6.4L16.3,2.8C14.4,0.9,12,0,9.5,0C7.1,0,4.7,0.9,2.8,2.8
		c-3.7,3.7-3.7,9.8,0,13.5L29.7,43.2z"/>
</g>
</svg>
