<?xml version="1.0" encoding="utf-8"?>
<!-- Generator: Adobe Illustrator 22.1.0, SVG Export Plug-In . SVG Version: 6.00 Build 0)  -->
<svg version="1.1" id="Layer_1" xmlns="http://www.w3.org/2000/svg" xmlns:xlink="http://www.w3.org/1999/xlink" x="0px" y="0px"
	 viewBox="0 0 64 64" style="enable-background:new 0 0 64 64;" xml:space="preserve">
<style type="text/css">
	.st0{fill:#4F4F4F;}
	.st1{fill:#D81C57;}
	.st2{fill:#FFFFFF;}
	.st3{fill:#E4AC2C;}
	.st4{fill:#17B1E0;}
</style>
<path class="st0" d="M60,57.9V8.1C60,6.4,58.8,5,57.2,5H6.8C5.2,5,4,6.4,4,8.1v49.8C4,59.6,5.2,61,6.8,61h50.4
	C58.8,61,60,59.6,60,57.9z"/>
<path class="st1" d="M30,11l0.1,50H34V11H30z"/>
<path class="st2" d="M22,16v3h4v-3H22z M18,22v3h8v-3H18z M10,28v3h16v-3H10z M6,34v3h20v-3H6z M10,40v3h16v-3H10z M18,46v3h8v-3H18
	z"/>
<path class="st3" d="M40,5h-8h-8l4,6l4,6l4-6L40,5z"/>
<path class="st4" d="M39.6,21.4c-0.7,0-1.5,0.7-1.5,1.4L38,44c0,1,1.4,1.8,2.2,1.2l15.2-10.6c0.8-0.6,0.8-1.9,0-2.4L40.2,21.6
	C40,21.4,39.8,21.4,39.6,21.4L39.6,21.4z"/>
</svg>
