<?xml version="1.0" encoding="utf-8"?>
<!-- Generator: Adobe Illustrator 22.1.0, SVG Export Plug-In . SVG Version: 6.00 Build 0)  -->
<svg version="1.1" id="Layer_1" xmlns="http://www.w3.org/2000/svg" xmlns:xlink="http://www.w3.org/1999/xlink" x="0px" y="0px"
	 viewBox="0 0 48 48" style="enable-background:new 0 0 48 48;" xml:space="preserve">
<style type="text/css">
	.st0{fill:#17B1E0;}
	.st1{fill:#EBECEC;}
	.st2{fill:#004F59;}
	.st3{fill:#EAD224;}
</style>
<circle class="st0" cx="24" cy="24" r="19.5"/>
<path class="st1" d="M30,16.9l-7.2,8.5l-0.9-0.8l7.2-8.5l0.2-0.7l2.4-2.3l1,0.9l-1.9,2.7L30,16.9L30,16.9L30,16.9z"/>
<path class="st2" d="M22.5,26.1l0.5-0.5c0.1-0.1,0.1-0.4,0-0.5l-0.8-0.7c-0.1-0.1-0.4-0.1-0.5,0L21.2,25c-0.5-0.4-1.3-0.3-1.7,0.2
	L13.6,32c-0.5,0.5-0.4,1.3,0.1,1.8l1.1,0.9c0.5,0.5,1.3,0.4,1.8-0.1l5.9-6.8C22.9,27.3,22.9,26.5,22.5,26.1L22.5,26.1L22.5,26.1z"/>
<path class="st3" d="M30.4,27.3c1.2-0.4,2.5-0.2,3.5,0.8s1.3,2.4,0.9,3.7L32.9,30L31,32l1.9,1.8c-1.2,0.5-2.6,0.2-3.6-0.7
	s-1.3-2.3-0.9-3.5l-8.1-7.3c-1.5,0.6-3.2,0.3-4.4-0.9c-1.2-1.1-1.6-2.7-1.2-4.1l3,2.8l2.8-3l-3-2.8c1.4-0.4,3-0.1,4.2,1
	c1.2,1.2,1.6,2.9,1.1,4.4L30.4,27.3L30.4,27.3L30.4,27.3z"/>
</svg>
