<?xml version="1.0" encoding="utf-8"?>
<!-- Generator: Adobe Illustrator 22.1.0, SVG Export Plug-In . SVG Version: 6.00 Build 0)  -->
<svg version="1.1" id="Layer_1" xmlns="http://www.w3.org/2000/svg" xmlns:xlink="http://www.w3.org/1999/xlink" x="0px" y="0px"
	 viewBox="0 0 64 64" style="enable-background:new 0 0 64 64;" xml:space="preserve">
<style type="text/css">
	.st0{fill:#17B1E0;}
	.st1{fill:#FFFFFF;}
</style>
<path class="st0" d="M60,32L60,32C60,16.5,47.5,4,32,4l0,0C16.5,4,4,16.5,4,32l0,0c0,15.5,12.5,28,28,28l0,0C47.5,60,60,47.5,60,32z
	"/>
<path class="st1" d="M29.1,12c-0.8,0-1.1,0.7-1.1,1.5V38h-6l10,14l10-14h-6V13.5c0-0.9-0.4-1.5-1.1-1.5L29.1,12L29.1,12z"/>
</svg>
